<svg id="Ebene_1" data-name="Ebene 1" xmlns="http://www.w3.org/2000/svg" xmlns:xlink="http://www.w3.org/1999/xlink" viewBox="0 0 383 224"><defs><style>.cls-1{fill:none;}.cls-2{clip-path:url(#clip-path);}.cls-3{fill:#fece00;}.cls-4{fill:#0bda7d;}.cls-5{fill:#2962fa;}.cls-6{fill:#ff3e50;}</style><clipPath id="clip-path"><rect class="cls-1" y="0.02411" width="383" height="223.97589"/></clipPath></defs><g class="cls-2"><rect class="cls-3" x="54" y="72.02411" width="18" height="36"/><rect x="72" y="72.02411" width="18" height="18"/><rect class="cls-4" x="90" y="54.02411" width="18" height="36"/><rect class="cls-5" x="54" y="54.02411" width="18" height="18"/><rect class="cls-6" x="90" y="90.02411" width="18" height="18"/><polygon points="151.807 62.715 142.101 62.715 142.101 54.017 138.011 54.017 138.011 75.041 142.101 75.041 142.101 66.314 151.807 66.314 151.807 75.041 155.896 75.041 155.896 54.017 151.807 54.017 151.807 62.715"/><path d="M174.54443,61.28876a7.87509,7.87509,0,0,0-2.69287-1.78516,10.15882,10.15882,0,0,0-7.14258,0,7.86589,7.86589,0,0,0-2.69287,1.78516,7.99621,7.99621,0,0,0-1.69922,2.5918,8.079,8.079,0,0,0-.59033,3.06738v.60547a8.18176,8.18176,0,0,0,.56153,2.99512,7.7376,7.7376,0,0,0,1.65625,2.57715,7.86847,7.86847,0,0,0,2.67822,1.7998,10.34038,10.34038,0,0,0,7.28662,0,7.878,7.878,0,0,0,2.67822-1.7998,7.74527,7.74527,0,0,0,1.65625-2.57715,8.18176,8.18176,0,0,0,.56153-2.99512v-.60547a8.25947,8.25947,0,0,0-.57618-3.06738A7.81429,7.81429,0,0,0,174.54443,61.28876Zm-2.26074,8.46777a4.12294,4.12294,0,0,1-1.52637,1.75684,5.06114,5.06114,0,0,1-4.95361,0,4.2122,4.2122,0,0,1-1.541-1.75684,6.221,6.221,0,0,1,.01416-5.06933,4.28785,4.28785,0,0,1,1.56982-1.75684,4.89728,4.89728,0,0,1,4.86719,0A4.19379,4.19379,0,0,1,172.269,64.6872a5.82047,5.82047,0,0,1,.53272,2.54883A5.88886,5.88886,0,0,1,172.28369,69.75653Z"/><path d="M190.23975,70.72138a3.06132,3.06132,0,0,1-1.19532,1.03613,3.94733,3.94733,0,0,1-1.78564.375,3.76872,3.76872,0,0,1-2.26074-.63379,3.67629,3.67629,0,0,1-1.2959-1.75683,7.14842,7.14842,0,0,1-.41748-2.50586,6.9853,6.9853,0,0,1,.43213-2.54883,3.77831,3.77831,0,0,1,1.31006-1.74219,3.67238,3.67238,0,0,1,2.20312-.63379,3.42311,3.42311,0,0,1,2.40479.80664,3.15933,3.15933,0,0,1,1.02246,2.01563h3.88818a6.40174,6.40174,0,0,0-1.08008-3.28321,6.5655,6.5655,0,0,0-2.57763-2.20312,8.9595,8.9595,0,0,0-7.09913-.11523,7.36233,7.36233,0,0,0-2.49121,1.81445,7.646,7.646,0,0,0-1.5122,2.5918,9.22061,9.22061,0,0,0-.50391,3.03906v.54687a9.057,9.057,0,0,0,.48975,2.9375,7.74313,7.74313,0,0,0,1.48339,2.5918,7.26782,7.26782,0,0,0,2.47657,1.84375,9.10833,9.10833,0,0,0,7.229-.11523,6.82747,6.82747,0,0,0,2.62061-2.23243,6.36791,6.36791,0,0,0,1.10888-3.32617h-3.88818A3.49826,3.49826,0,0,1,190.23975,70.72138Z"/><path d="M206.81348,58.91278h-.17286a5.05319,5.05319,0,0,0-3.03808.86426,5.12272,5.12272,0,0,0-1.71387,2.30908V54.01728h-4.00293V75.04071h4.00293v-9.043a3.52588,3.52588,0,0,1,.90723-2.51954,3.11,3.11,0,0,1,2.376-.96484,2.98882,2.98882,0,0,1,2.23194.86328,3.22472,3.22472,0,0,1,.84961,2.36231v9.30175h4.00342V66.113a8.82607,8.82607,0,0,0-1.38233-5.35645A4.76107,4.76107,0,0,0,206.81348,58.91278Z"/><path d="M227.47705,67.09247a8.26185,8.26185,0,0,0-4.334-1.52637l-1.38282-.14453a4.002,4.002,0,0,1-1.82861-.54687,1.33181,1.33181,0,0,1-.56152-1.15235,1.49017,1.49017,0,0,1,.69092-1.2666,3.35632,3.35632,0,0,1,1.95849-.49023,3.49065,3.49065,0,0,1,2.16016.57617,1.88344,1.88344,0,0,1,.80615,1.38281h3.6001a4.47794,4.47794,0,0,0-1.87207-3.71582,7.88878,7.88878,0,0,0-4.66553-1.2666,8.85475,8.85475,0,0,0-3.26855.56152,4.94088,4.94088,0,0,0-2.23194,1.65528,4.4398,4.4398,0,0,0-.80664,2.708,4.03532,4.03532,0,0,0,1.41113,3.22558,7.29643,7.29643,0,0,0,4.03223,1.49707l1.38232.14453a4.71674,4.71674,0,0,1,2.20313.6045,1.44451,1.44451,0,0,1,.648,1.23828,1.586,1.586,0,0,1-.84961,1.41113,4.37079,4.37079,0,0,1-2.28955.51855,3.96431,3.96431,0,0,1-2.53418-.6621,2.21571,2.21571,0,0,1-.89307-1.46875h-3.6001a4.68974,4.68974,0,0,0,1.91553,3.7871,8.27982,8.27982,0,0,0,5.0542,1.36817,9.36429,9.36429,0,0,0,3.6001-.63379,5.51679,5.51679,0,0,0,2.376-1.77148,4.37609,4.37609,0,0,0,.8496-2.69239A4.03269,4.03269,0,0,0,227.47705,67.09247Z"/><path d="M242.28076,70.72138a3.06129,3.06129,0,0,1-1.19531,1.03613,3.94738,3.94738,0,0,1-1.78565.375,3.76874,3.76874,0,0,1-2.26074-.63379,3.67629,3.67629,0,0,1-1.2959-1.75683,7.14842,7.14842,0,0,1-.41748-2.50586,6.98551,6.98551,0,0,1,.43213-2.54883,3.77838,3.77838,0,0,1,1.31006-1.74219,3.67243,3.67243,0,0,1,2.20313-.63379,3.4231,3.4231,0,0,1,2.40478.80664,3.15928,3.15928,0,0,1,1.02246,2.01563h3.88819a6.40183,6.40183,0,0,0-1.08008-3.28321,6.56553,6.56553,0,0,0-2.57764-2.20312,8.95948,8.95948,0,0,0-7.09912-.11523,7.36213,7.36213,0,0,0-2.49121,1.81445,7.64617,7.64617,0,0,0-1.51221,2.5918,9.2206,9.2206,0,0,0-.5039,3.03906v.54687a9.057,9.057,0,0,0,.48974,2.9375,7.743,7.743,0,0,0,1.4834,2.5918,7.26778,7.26778,0,0,0,2.47656,1.84375,9.10835,9.10835,0,0,0,7.229-.11523,6.82744,6.82744,0,0,0,2.6206-2.23243,6.36783,6.36783,0,0,0,1.10889-3.32617h-3.88818A3.4984,3.4984,0,0,1,242.28076,70.72138Z"/><path d="M258.85449,58.91278h-.17285a5.05322,5.05322,0,0,0-3.03809.86426,5.1227,5.1227,0,0,0-1.71386,2.30908V54.01728h-4.00293V75.04071h4.00293v-9.043a3.52588,3.52588,0,0,1,.90722-2.51954,3.11,3.11,0,0,1,2.376-.96484,2.98878,2.98878,0,0,1,2.23193.86328,3.22468,3.22468,0,0,1,.84961,2.36231v9.30175h4.00342V66.113a8.82614,8.82614,0,0,0-1.38232-5.35645A4.76108,4.76108,0,0,0,258.85449,58.91278Z"/><path d="M278.38086,68.61884a3.29869,3.29869,0,0,1-.87842,2.41894,3.03234,3.03234,0,0,1-2.26074.89258,2.87333,2.87333,0,0,1-2.189-.84961,3.18631,3.18631,0,0,1-.80664-2.28906v-9.418h-4.00293V68.446a8.12963,8.12963,0,0,0,1.48291,5.29883A5.14376,5.14376,0,0,0,273.9165,75.531h.17286a5.33888,5.33888,0,0,0,3.02392-.80664,4.83383,4.83383,0,0,0,1.81445-2.39063,7.881,7.881,0,0,0,.28809-.95654v3.66357h3.168v-15.667h-4.00293Z"/><polygon points="285.235 54.017 285.235 57.012 287.193 57.012 287.193 75.041 291.196 75.041 291.196 57.012 291.196 54.017 287.193 54.017 285.235 54.017"/><path d="M310.291,66.74677a8.83415,8.83415,0,0,0-.86426-3.874,7.04213,7.04213,0,0,0-2.57764-2.90821,7.66421,7.66421,0,0,0-4.24805-1.10937,8.05592,8.05592,0,0,0-3.39795.67676,7.24619,7.24619,0,0,0-2.4624,1.81445,7.77361,7.77361,0,0,0-1.498,2.5918,9.13291,9.13291,0,0,0-.50391,3.00976v.54785a8.83512,8.83512,0,0,0,.50391,2.9375,8.13076,8.13076,0,0,0,1.498,2.60645,7.13076,7.13076,0,0,0,2.50537,1.85742,8.40976,8.40976,0,0,0,3.52784.69141,8.50444,8.50444,0,0,0,3.44189-.66309,6.50373,6.50373,0,0,0,2.49121-1.87207,6.61287,6.61287,0,0,0,1.32471-2.82227h-3.68653a2.6351,2.6351,0,0,1-1.18066,1.45508,4.367,4.367,0,0,1-2.39062.58985,4.20532,4.20532,0,0,1-2.41895-.64747,3.84862,3.84862,0,0,1-1.41113-1.78613,6.30428,6.30428,0,0,1-.40186-1.65625h11.749Zm-9.936-3.97461a4.00256,4.00256,0,0,1,2.24609-.60449,3.93394,3.93394,0,0,1,2.20362.57617,3.44849,3.44849,0,0,1,1.31006,1.6416,5.83264,5.83264,0,0,1,.33813,1.35352H298.6073a5.8331,5.8331,0,0,1,.35071-1.22461A3.74211,3.74211,0,0,1,300.355,62.77216Z"/><polygon points="151.807 95.715 142.101 95.715 142.101 87.017 138.011 87.017 138.011 108.041 142.101 108.041 142.101 99.314 151.807 99.314 151.807 108.041 155.896 108.041 155.896 87.017 151.807 87.017 151.807 95.715"/><path d="M174.54443,94.28876a7.87509,7.87509,0,0,0-2.69287-1.78516,10.15882,10.15882,0,0,0-7.14258,0,7.86589,7.86589,0,0,0-2.69287,1.78516,7.99621,7.99621,0,0,0-1.69922,2.5918,8.079,8.079,0,0,0-.59033,3.06738v.60547a8.18176,8.18176,0,0,0,.56153,2.99512,7.7376,7.7376,0,0,0,1.65625,2.57715,7.86847,7.86847,0,0,0,2.67822,1.7998,10.34038,10.34038,0,0,0,7.28662,0,7.878,7.878,0,0,0,2.67822-1.7998,7.74527,7.74527,0,0,0,1.65625-2.57715,8.18176,8.18176,0,0,0,.56153-2.99512v-.60547a8.25947,8.25947,0,0,0-.57618-3.06738A7.81429,7.81429,0,0,0,174.54443,94.28876Zm-2.26074,8.46777a4.12294,4.12294,0,0,1-1.52637,1.75684,5.06114,5.06114,0,0,1-4.95361,0,4.2122,4.2122,0,0,1-1.541-1.75684,6.221,6.221,0,0,1,.01416-5.06933,4.28785,4.28785,0,0,1,1.56982-1.75684,4.89728,4.89728,0,0,1,4.86719,0A4.19379,4.19379,0,0,1,172.269,97.6872a5.82047,5.82047,0,0,1,.53272,2.54883A5.88886,5.88886,0,0,1,172.28369,102.75653Z"/><path d="M184.43652,91.68232a1.80874,1.80874,0,0,1,.4751-1.33887,1.85406,1.85406,0,0,1,1.36817-.47559h2.24658v-3.081h-1.9585a6.55722,6.55722,0,0,0-4.39209,1.28125,4.9552,4.9552,0,0,0-1.4834,3.96v.63379h-1.958v2.9375h1.958v12.4414h3.74414V95.59931h4.34864v-2.9375h-4.34864Z"/><path d="M140.63672,139.64716a7.30265,7.30265,0,0,0,6.40332,0,4.73706,4.73706,0,0,0,1.939-2.07422,6.9688,6.9688,0,0,0,.65284-3.09961v-8.44922h-1.88135v8.67969a4.5633,4.5633,0,0,1-.45117,2.082,3.212,3.212,0,0,1-1.3252,1.38281,4.89622,4.89622,0,0,1-4.291-.00976,3.25232,3.25232,0,0,1-1.33448-1.3916,4.51472,4.51472,0,0,1-.45117-2.06348v-8.67969h-1.88135v8.44922a6.88436,6.88436,0,0,0,.66211,3.09961A4.78359,4.78359,0,0,0,140.63672,139.64716Z"/><path d="M155.00732,133.91571a2.70291,2.70291,0,0,1,.749-1.99707,2.6521,2.6521,0,0,1,1.95849-.748,2.40119,2.40119,0,0,1,1.84327.71972,2.68628,2.68628,0,0,1,.67187,1.91016v6.24023h1.84326v-5.85644a5.64237,5.64237,0,0,0-.93115-3.49414,3.39328,3.39328,0,0,0-2.87061-1.209h-.07666a3.843,3.843,0,0,0-2.13134.54688,3.25638,3.25638,0,0,0-1.25733,1.59375,5.01812,5.01812,0,0,0-.18261.56152v-2.39551h-1.459v10.25293h1.84277Z"/><polygon points="165.952 140.041 167.795 140.041 167.795 131.247 167.795 129.788 165.952 129.788 164.377 129.788 164.377 131.247 165.952 131.247 165.952 140.041"/><path d="M166.47021,128.13739a1.08394,1.08394,0,1,0-.9121-.32714A1.1742,1.1742,0,0,0,166.47021,128.13739Z"/><polygon points="177.875 129.788 175.323 138.582 174.912 138.582 171.98 129.788 170.061 129.788 173.555 140.041 174.016 140.041 174.899 140.041 175.398 140.041 176.243 140.041 176.646 140.041 179.68 129.788 177.875 129.788"/><path d="M190.87305,136.988h-1.728a2.09008,2.09008,0,0,1-.91211,1.24805,3.83343,3.83343,0,0,1-3.86865.02832,2.98255,2.98255,0,0,1-1.104-1.38184,5.04945,5.04945,0,0,1-.32592-1.62207h8.11157v-.82617a5.65431,5.65431,0,0,0-.52832-2.41895,4.45093,4.45093,0,0,0-1.61279-1.85254,4.88106,4.88106,0,0,0-2.75489-.7207,5.16572,5.16572,0,0,0-2.23681.45117,4.42322,4.42322,0,0,0-1.565,1.21,5.136,5.136,0,0,0-.9121,1.69922,6.37784,6.37784,0,0,0-.29737,1.93848v.3457a6.3148,6.3148,0,0,0,.29737,1.91992,5.11686,5.11686,0,0,0,.9121,1.69922,4.453,4.453,0,0,0,1.59375,1.21973,5.4044,5.4044,0,0,0,2.32325.46094,5.5429,5.5429,0,0,0,2.16943-.40332,4.00672,4.00672,0,0,0,2.43848-2.99512Zm-6.5376-5.43359a3.109,3.109,0,0,1,1.81445-.499,3.18472,3.18472,0,0,1,1.74707.44141,2.70789,2.70789,0,0,1,1.03662,1.23828,4.26358,4.26358,0,0,1,.28223,1.14258h-6.22473a4.537,4.537,0,0,1,.26916-.96A3.00558,3.00558,0,0,1,184.33545,131.55439Z"/><path d="M195.5,134.49189a3.16455,3.16455,0,0,1,.82568-2.35254,3.22172,3.22172,0,0,1,2.36182-.81543h.65283v-1.65137h-.3457a3.896,3.896,0,0,0-2.96631,1.04688,3.84785,3.84785,0,0,0-.91211,2.17187v-3.10352h-1.459v10.25293H195.5Z"/><path d="M204.88916,140.34833a5.56008,5.56008,0,0,0,2.208-.41308,3.59251,3.59251,0,0,0,1.50732-1.15235,2.778,2.778,0,0,0,.54688-1.69922,2.4426,2.4426,0,0,0-.998-2.083,5.32151,5.32151,0,0,0-2.6499-.91211l-1.11328-.11524a2.33817,2.33817,0,0,1-1.29639-.4414,1.16568,1.16568,0,0,1-.39355-.92188,1.36466,1.36466,0,0,1,.55712-1.11328,3.25115,3.25115,0,0,1,3.2544-.00977,1.353,1.353,0,0,1,.5664,1.04688h1.72754a2.7157,2.7157,0,0,0-1.11328-2.28516,4.71909,4.71909,0,0,0-2.80322-.76758,5.1855,5.1855,0,0,0-2.03516.374,3.16379,3.16379,0,0,0-1.38232,1.07519,2.81754,2.81754,0,0,0-.49951,1.67969,2.42,2.42,0,0,0,.92187,2.02539,4.55492,4.55492,0,0,0,2.38086.874l1.11328.11524a3.2671,3.2671,0,0,1,1.55518.46973,1.16293,1.16293,0,0,1,.48.98925,1.45726,1.45726,0,0,1-.65283,1.2002,3.09631,3.09631,0,0,1-1.88135.49023,2.79764,2.79764,0,0,1-1.92969-.52929,1.69111,1.69111,0,0,1-.605-1.12305h-1.728a2.94005,2.94005,0,0,0,1.14258,2.3623A4.963,4.963,0,0,0,204.88916,140.34833Z"/><polygon points="210.745 129.788 210.745 131.247 212.319 131.247 212.319 140.041 214.163 140.041 214.163 131.247 214.163 129.788 212.319 129.788 210.745 129.788"/><path d="M212.83789,128.13739a1.08393,1.08393,0,1,0-.91211-.32714A1.17416,1.17416,0,0,0,212.83789,128.13739Z"/><path d="M221.72705,140.156h1.57471v-1.65137h-1.80469a1.57061,1.57061,0,0,1-1.728-1.72851V131.1706h3.53272v-1.38282H219.769v-3.11035h-1.7666v3.11035h-1.76611v1.38282h1.76611v5.375a4.38531,4.38531,0,0,0,.45117,2.16015,2.47371,2.47371,0,0,0,1.28662,1.12305A5.42843,5.42843,0,0,0,221.72705,140.156Z"/><path d="M232.26758,129.78778l-2.51892,8.48633h-.40052l-2.97509-8.48633H224.4917l3.667,10.02247h1.134l-.25073.84472a3.14678,3.14678,0,0,1-.48974,1.01758,1.63159,1.63159,0,0,1-.74854.54688,3.25043,3.25043,0,0,1-1.104.16406h-1.47852v1.65039h1.36328a5.28687,5.28687,0,0,0,1.85254-.29688,3.286,3.286,0,0,0,1.354-.9414,4.48678,4.48678,0,0,0,.86377-1.66016l3.41748-11.34766Z"/><path d="M251.00684,135.08661v-.3457a5.36319,5.36319,0,0,0-.36475-1.92969,5.21873,5.21873,0,0,0-2.80322-2.918,6.20722,6.20722,0,0,0-4.64649,0,5.21873,5.21873,0,0,0-2.80322,2.918,5.35292,5.35292,0,0,0-.36475,1.92969v.3457a5.39111,5.39111,0,0,0,.355,1.91992,5.16676,5.16676,0,0,0,1.05616,1.69922,5.2567,5.2567,0,0,0,1.71826,1.21973,6.28008,6.28008,0,0,0,4.72314,0,5.27426,5.27426,0,0,0,1.71875-1.21973,5.17348,5.17348,0,0,0,1.05567-1.69922A5.39169,5.39169,0,0,0,251.00684,135.08661Zm-2.27539,1.76758a3.3578,3.3578,0,0,1-1.24805,1.37207,4.06058,4.06058,0,0,1-3.936,0,3.35771,3.35771,0,0,1-1.248-1.37207,4.5704,4.5704,0,0,1,.00976-3.89844,3.33773,3.33773,0,0,1,1.26709-1.36328,4.03642,4.03642,0,0,1,3.88819,0,3.35716,3.35716,0,0,1,1.25732,1.36328,4.56581,4.56581,0,0,1,.00977,3.89844Z"/><path d="M254.04053,140.04071h1.7666v-8.75488h3.24463V129.903h-3.24463v-.94141a1.48388,1.48388,0,0,1,.38379-1.084,1.46139,1.46139,0,0,1,1.09424-.39356h1.5747v-1.53613h-1.26709a3.857,3.857,0,0,0-2.6499.80664,3.20829,3.20829,0,0,0-.90234,2.51563v.63281h-1.4209v1.38281h1.4209Z"/><path d="M141.83691,151.6247l-5.0498,14.0166H138.669l1.4895-4.18555h6.58984l1.5398,4.18555h1.939l-5.20312-14.0166Zm-1.07739,8.1416,2.29566-6.45117h.69836l2.37317,6.45117Z"/><path d="M161.65088,156.61689a4.72084,4.72084,0,0,0-3.59033-1.5752,4.61914,4.61914,0,0,0-2.13086.5,3.83215,3.83215,0,0,0-1.58448,1.54492,4.58815,4.58815,0,0,0-.355.82154v-2.52076h-1.459v14.09375H154.374v-5.3916a3.86558,3.86558,0,0,0,1.55567,1.417,4.881,4.881,0,0,0,4.09912.05762,4.86333,4.86333,0,0,0,1.57422-1.15234,5.28782,5.28782,0,0,0,1.02734-1.68946,5.69026,5.69026,0,0,0,.36475-2.03515v-.3457a5.95921,5.95921,0,0,0-.34571-2.03516A5.09828,5.09828,0,0,0,161.65088,156.61689Zm-.92139,5.90332a3.17617,3.17617,0,0,1-2.99512,1.85351,3.657,3.657,0,0,1-1.68994-.40332,3.23242,3.23242,0,0,1-1.26709-1.15137,3.27983,3.27983,0,0,1-.48-1.80566v-.88281a3.54808,3.54808,0,0,1,.47071-1.87207,3.1643,3.1643,0,0,1,1.25732-1.19043,3.6334,3.6334,0,0,1,1.709-.41309,3.18865,3.18865,0,0,1,2.99512,1.84375,4.99736,4.99736,0,0,1,0,4.02149Z"/><path d="M174.87939,156.61689a4.72084,4.72084,0,0,0-3.59033-1.5752,4.6192,4.6192,0,0,0-2.13086.5,3.83207,3.83207,0,0,0-1.58447,1.54492,4.58671,4.58671,0,0,0-.355.82154v-2.52076h-1.459v14.09375h1.84277v-5.3916a3.86549,3.86549,0,0,0,1.55566,1.417,4.881,4.881,0,0,0,4.09912.05762,4.86312,4.86312,0,0,0,1.57422-1.15234,5.28785,5.28785,0,0,0,1.02735-1.68946,5.69047,5.69047,0,0,0,.36474-2.03515v-.3457a5.9592,5.9592,0,0,0-.3457-2.03516A5.09847,5.09847,0,0,0,174.87939,156.61689Zm-.92138,5.90332a3.17617,3.17617,0,0,1-2.99512,1.85351,3.65692,3.65692,0,0,1-1.68994-.40332,3.23235,3.23235,0,0,1-1.26709-1.15137,3.27983,3.27983,0,0,1-.48-1.80566v-.88281a3.54817,3.54817,0,0,1,.4707-1.87207,3.16432,3.16432,0,0,1,1.25733-1.19043,3.63337,3.63337,0,0,1,1.709-.41309,3.18865,3.18865,0,0,1,2.99512,1.84375,4.99747,4.99747,0,0,1,0,4.02149Z"/><polygon points="177.683 151.625 177.683 153.085 179.104 153.085 179.104 165.641 180.947 165.641 180.947 153.085 180.947 151.625 179.104 151.625 177.683 151.625"/><polygon points="183.404 155.387 183.404 156.847 184.979 156.847 184.979 165.641 186.822 165.641 186.822 156.847 186.822 155.387 184.979 155.387 183.404 155.387"/><path d="M186.40869,153.41083a1.43772,1.43772,0,1,0-.91162.32617A1.17848,1.17848,0,0,0,186.40869,153.41083Z"/><path d="M197.39111,155.76239a4.881,4.881,0,0,0-2.75488-.7207,5.16565,5.16565,0,0,0-2.23682.45215,4.41206,4.41206,0,0,0-1.56494,1.21,5.136,5.136,0,0,0-.91211,1.69922,6.37809,6.37809,0,0,0-.29736,1.93848v.3457a6.3151,6.3151,0,0,0,.29736,1.91992,5.11689,5.11689,0,0,0,.91211,1.69922,4.453,4.453,0,0,0,1.59375,1.21973,5.41887,5.41887,0,0,0,2.32324.46093,5.54291,5.54291,0,0,0,2.16944-.40429,4.003,4.003,0,0,0,2.43847-2.99414h-1.728a2.09556,2.09556,0,0,1-.91211,1.248,3.83957,3.83957,0,0,1-3.86865.02832,2.98731,2.98731,0,0,1-1.104-1.38183,5.0531,5.0531,0,0,1-.32593-1.62305h8.11158v-.82617a5.64992,5.64992,0,0,0-.52832-2.418A4.45337,4.45337,0,0,0,197.39111,155.76239Zm-4.56933,1.39258a3.10221,3.10221,0,0,1,1.81445-.5,3.19306,3.19306,0,0,1,1.74707.44141,2.71288,2.71288,0,0,1,1.03662,1.23828,4.26345,4.26345,0,0,1,.28223,1.14258h-6.22461a4.52492,4.52492,0,0,1,.269-.959A3.00049,3.00049,0,0,1,192.82178,157.155Z"/><path d="M209.99609,156.9455a3.834,3.834,0,0,0-1.49755-1.41357,4.62642,4.62642,0,0,0-2.13135-.49024,4.85327,4.85327,0,0,0-2.02539.41406,4.74718,4.74718,0,0,0-1.57422,1.14258,5.25129,5.25129,0,0,0-1.02735,1.68945,5.73084,5.73084,0,0,0-.36474,2.05372v.3457a5.65261,5.65261,0,0,0,.374,2.07324,5.231,5.231,0,0,0,1.05615,1.68945,4.77209,4.77209,0,0,0,1.60352,1.13282,4.96118,4.96118,0,0,0,2.01562.40429,4.7194,4.7194,0,0,0,2.12159-.49023,3.985,3.985,0,0,0,1.6416-1.57422,4.193,4.193,0,0,0,.19238-.38672v2.10547h1.459V151.6247h-1.84327Zm.07666,3.91455a3.67478,3.67478,0,0,1-.46045,1.87207,3.17425,3.17425,0,0,1-1.229,1.21973,3.49039,3.49039,0,0,1-1.709.42187,3.40323,3.40323,0,0,1-1.78516-.4707,3.20821,3.20821,0,0,1-1.229-1.34375,4.98531,4.98531,0,0,1-.00977-4.08008,3.246,3.246,0,0,1,1.21-1.34375,3.34236,3.34236,0,0,1,1.79492-.48047,3.70615,3.70615,0,0,1,1.69922.39453,3.12368,3.12368,0,0,1,1.24805,1.13282,3.274,3.274,0,0,1,.47021,1.79492Z"/><path d="M227.91943,158.33466a7.193,7.193,0,0,0-2.48632-.60352l-1.55518-.13476a2.73145,2.73145,0,0,1-1.7666-.69141,1.87507,1.87507,0,0,1-.59522-1.36328,2.44312,2.44312,0,0,1,1.35352-2.208,3.6184,3.6184,0,0,1,1.71875-.36425,3.502,3.502,0,0,1,1.74707.38281,2.4742,2.4742,0,0,1,.98877.98047,2.657,2.657,0,0,1,.31689,1.2666h1.88135a4.02171,4.02171,0,0,0-2.36133-3.82129,5.86532,5.86532,0,0,0-2.57275-.53711,5.80385,5.80385,0,0,0-2.59229.54687,4.25627,4.25627,0,0,0-1.7373,1.50782,4.02379,4.02379,0,0,0-.624,2.24609,3.36519,3.36519,0,0,0,1.11328,2.63086,4.93032,4.93032,0,0,0,2.97607,1.15137l1.55518.13379a4.27715,4.27715,0,0,1,2.189.70117,1.72637,1.72637,0,0,1,.74854,1.43066,2.40876,2.40876,0,0,1-.38379,1.31543,2.7118,2.7118,0,0,1-1.19043.97852,4.93947,4.93947,0,0,1-2.07373.375,4.64436,4.64436,0,0,1-2.15967-.42188,2.613,2.613,0,0,1-1.13281-1.05664,2.68078,2.68078,0,0,1-.33594-1.26758h-1.88184a4.17537,4.17537,0,0,0,.65284,2.30469,4.3812,4.3812,0,0,0,1.88134,1.59375,6.97717,6.97717,0,0,0,2.97608.57617,7.05948,7.05948,0,0,0,2.89941-.55761,4.53561,4.53561,0,0,0,1.939-1.55567,3.90864,3.90864,0,0,0,.6914-2.28418,3.33179,3.33179,0,0,0-.5664-1.94824A3.94243,3.94243,0,0,0,227.91943,158.33466Z"/><path d="M239.89014,163.20185a2.71335,2.71335,0,0,1-1.01758.82617,3.39474,3.39474,0,0,1-1.49756.30664,3.1947,3.1947,0,0,1-1.85254-.50781,3.07336,3.07336,0,0,1-1.104-1.38282,5.36433,5.36433,0,0,1,0-3.88867,3.04719,3.04719,0,0,1,1.09424-1.36328,3.162,3.162,0,0,1,1.82421-.49805,2.98828,2.98828,0,0,1,2.01563.64258,2.51172,2.51172,0,0,1,.8833,1.60352h1.7666a3.91591,3.91591,0,0,0-.70068-2.06445,4.15031,4.15031,0,0,0-1.65137-1.35352,5.41159,5.41159,0,0,0-2.31348-.48047,5.145,5.145,0,0,0-2.24658.46094,4.79745,4.79745,0,0,0-1.603,1.21972,5.13376,5.13376,0,0,0-.96,1.69922,5.973,5.973,0,0,0-.31689,1.91993v.3457a5.856,5.856,0,0,0,.31689,1.88183,5.469,5.469,0,0,0,.9502,1.71875,4.56663,4.56663,0,0,0,1.603,1.23829,5.30654,5.30654,0,0,0,2.29443.46093,5.48764,5.48764,0,0,0,2.352-.49023,4.29,4.29,0,0,0,1.68945-1.37305,3.7743,3.7743,0,0,0,.70118-2.09179h-1.76661A2.40606,2.40606,0,0,1,239.89014,163.20185Z"/><path d="M246.543,153.41083a1.43772,1.43772,0,1,0-.91162.32617A1.17848,1.17848,0,0,0,246.543,153.41083Z"/><polygon points="243.539 155.387 243.539 156.847 245.113 156.847 245.113 165.641 246.956 165.641 246.956 156.847 246.956 155.387 245.113 155.387 243.539 155.387"/><path d="M257.52539,155.76239a4.881,4.881,0,0,0-2.75488-.7207,5.16565,5.16565,0,0,0-2.23682.45215,4.41206,4.41206,0,0,0-1.56494,1.21,5.13585,5.13585,0,0,0-.91211,1.69922,6.37809,6.37809,0,0,0-.29736,1.93848v.3457a6.3151,6.3151,0,0,0,.29736,1.91992,5.11671,5.11671,0,0,0,.91211,1.69922,4.453,4.453,0,0,0,1.59375,1.21973,5.41887,5.41887,0,0,0,2.32324.46093,5.543,5.543,0,0,0,2.16944-.40429,4.003,4.003,0,0,0,2.43847-2.99414h-1.728a2.0955,2.0955,0,0,1-.9121,1.248,3.83959,3.83959,0,0,1-3.86866.02832,2.98735,2.98735,0,0,1-1.104-1.38183,5.0531,5.0531,0,0,1-.32593-1.62305h8.11157v-.82617a5.64992,5.64992,0,0,0-.52832-2.418A4.45334,4.45334,0,0,0,257.52539,155.76239Zm-4.56934,1.39258a3.10227,3.10227,0,0,1,1.81446-.5,3.19306,3.19306,0,0,1,1.74707.44141,2.71288,2.71288,0,0,1,1.03662,1.23828,4.26382,4.26382,0,0,1,.28223,1.14258h-6.22461a4.52433,4.52433,0,0,1,.269-.959A3.00047,3.00047,0,0,1,252.95605,157.155Z"/><path d="M267.38428,155.08075h-.07666a3.85121,3.85121,0,0,0-2.13135.54688,3.25636,3.25636,0,0,0-1.25732,1.59375,5.0565,5.0565,0,0,0-.18262.562v-2.396h-1.459V165.6413h1.84278v-6.125a2.69987,2.69987,0,0,1,.749-1.99707,2.64894,2.64894,0,0,1,1.9585-.749,2.3983,2.3983,0,0,1,1.84326.7207,2.68626,2.68626,0,0,1,.67187,1.91016v6.24023H271.186v-5.85645a5.64549,5.64549,0,0,0-.93116-3.49511A3.3959,3.3959,0,0,0,267.38428,155.08075Z"/><path d="M281.47705,163.20185a2.71327,2.71327,0,0,1-1.01758.82617,3.39471,3.39471,0,0,1-1.49756.30664,3.19472,3.19472,0,0,1-1.85254-.50781,3.07343,3.07343,0,0,1-1.104-1.38282,5.36433,5.36433,0,0,1,0-3.88867,3.04726,3.04726,0,0,1,1.09424-1.36328,3.1621,3.1621,0,0,1,1.82422-.49805,2.98827,2.98827,0,0,1,2.01562.64258,2.51172,2.51172,0,0,1,.8833,1.60352h1.76661a3.91592,3.91592,0,0,0-.70069-2.06445,4.15024,4.15024,0,0,0-1.65137-1.35352,5.41155,5.41155,0,0,0-2.31347-.48047,5.145,5.145,0,0,0-2.24658.46094,4.79725,4.79725,0,0,0-1.603,1.21972,5.13358,5.13358,0,0,0-.96,1.69922,5.97274,5.97274,0,0,0-.3169,1.91993v.3457a5.85578,5.85578,0,0,0,.3169,1.88183,5.469,5.469,0,0,0,.95019,1.71875,4.56681,4.56681,0,0,0,1.603,1.23829,5.30654,5.30654,0,0,0,2.29443.46093,5.48764,5.48764,0,0,0,2.35205-.49023,4.29,4.29,0,0,0,1.68946-1.37305,3.77421,3.77421,0,0,0,.70117-2.09179H281.938A2.40607,2.40607,0,0,1,281.47705,163.20185Z"/><path d="M293.19824,155.76239a4.881,4.881,0,0,0-2.75488-.7207,5.16565,5.16565,0,0,0-2.23682.45215,4.41206,4.41206,0,0,0-1.56494,1.21,5.13585,5.13585,0,0,0-.91211,1.69922,6.37809,6.37809,0,0,0-.29736,1.93848v.3457a6.3151,6.3151,0,0,0,.29736,1.91992,5.11671,5.11671,0,0,0,.91211,1.69922,4.453,4.453,0,0,0,1.59375,1.21973,5.41887,5.41887,0,0,0,2.32324.46093,5.54291,5.54291,0,0,0,2.16944-.40429,4.003,4.003,0,0,0,2.43847-2.99414h-1.728a2.09556,2.09556,0,0,1-.91211,1.248,3.83959,3.83959,0,0,1-3.86866.02832,2.98735,2.98735,0,0,1-1.104-1.38183,5.0531,5.0531,0,0,1-.32593-1.62305h8.11158v-.82617a5.64992,5.64992,0,0,0-.52832-2.418A4.45344,4.45344,0,0,0,293.19824,155.76239Zm-4.56933,1.39258a3.10221,3.10221,0,0,1,1.81445-.5,3.19306,3.19306,0,0,1,1.74707.44141,2.71288,2.71288,0,0,1,1.03662,1.23828,4.26382,4.26382,0,0,1,.28223,1.14258h-6.22461a4.52433,4.52433,0,0,1,.269-.959A3.00049,3.00049,0,0,1,288.62891,157.155Z"/><path d="M304.57471,160.60028a5.32161,5.32161,0,0,0-2.64991-.9121l-1.11328-.11524a2.33042,2.33042,0,0,1-1.29638-.44141,1.165,1.165,0,0,1-.39356-.92089,1.36515,1.36515,0,0,1,.55713-1.11426,3.25115,3.25115,0,0,1,3.2544-.00977,1.356,1.356,0,0,1,.5664,1.04688h1.72754a2.71825,2.71825,0,0,0-1.11328-2.28516,4.71913,4.71913,0,0,0-2.80322-.76758,5.16791,5.16791,0,0,0-2.03516.375,3.162,3.162,0,0,0-1.38232,1.07422,2.82059,2.82059,0,0,0-.49952,1.68067,2.42128,2.42128,0,0,0,.92188,2.02539,4.56335,4.56335,0,0,0,2.38086.874l1.11328.11523a3.25631,3.25631,0,0,1,1.55518.46973,1.16175,1.16175,0,0,1,.48.98926,1.45562,1.45562,0,0,1-.65284,1.19922,3.0896,3.0896,0,0,1-1.88134.49023,2.80293,2.80293,0,0,1-1.92969-.52832,1.69107,1.69107,0,0,1-.605-1.12305h-1.728a2.94006,2.94006,0,0,0,1.14258,2.36231,4.963,4.963,0,0,0,3.12012.86328,5.56,5.56,0,0,0,2.208-.41211,3.60041,3.60041,0,0,0,1.50733-1.15234,2.77811,2.77811,0,0,0,.54687-1.69922A2.44441,2.44441,0,0,0,304.57471,160.60028Z"/></g></svg>
